<svg xmlns="http://www.w3.org/2000/svg" version="1.1" xmlns:xlink="http://www.w3.org/1999/xlink" viewBox="0 0 200 200"><rect width="200" height="200" fill="url('#gradient')"></rect><defs><linearGradient id="gradient" gradientTransform="rotate(45 0.5 0.5)"><stop offset="0%" stop-color="#ffffff"></stop><stop offset="100%" stop-color="#ffffff"></stop></linearGradient></defs><g><g fill="#ff4f19" transform="matrix(1.3546964574452447,0,0,1.3546964574452447,8.54467835442803,107.26915701224526)" stroke="#fd893a" stroke-width="0.2"><path d="M5.75 0L1.07 0L1.07-14.22L5.65-14.22Q7.54-14.22 9.04-13.36Q10.55-12.51 11.39-10.95Q12.24-9.39 12.25-7.46L12.25-7.46L12.25-6.81Q12.25-4.85 11.42-3.31Q10.60-1.76 9.10-0.88Q7.60-0.01 5.75 0L5.75 0ZM5.65-11.57L4.50-11.57L4.50-2.64L5.69-2.64Q7.17-2.64 7.96-3.69Q8.75-4.74 8.75-6.81L8.75-6.81L8.75-7.42Q8.75-9.48 7.96-10.53Q7.17-11.57 5.65-11.57L5.65-11.57ZM18.96 0.20L18.96 0.20Q16.53 0.20 15.03-1.25Q13.53-2.71 13.53-5.03L13.53-5.03L13.53-5.30Q13.53-6.92 14.13-8.16Q14.73-9.40 15.88-10.08Q17.03-10.76 18.61-10.76L18.61-10.76Q20.84-10.76 22.13-9.38Q23.42-8.00 23.42-5.53L23.42-5.53L23.42-4.25L16.88-4.25Q17.05-3.36 17.65-2.85Q18.24-2.34 19.19-2.34L19.19-2.34Q20.75-2.34 21.63-3.44L21.63-3.44L23.13-1.66Q22.52-0.81 21.39-0.31Q20.26 0.20 18.96 0.20ZM18.59-8.22L18.59-8.22Q17.15-8.22 16.88-6.31L16.88-6.31L20.20-6.31L20.20-6.56Q20.21-7.35 19.79-7.79Q19.38-8.22 18.59-8.22ZM30.27-2.97L30.27-2.97Q30.27-3.39 29.83-3.64Q29.39-3.90 28.16-4.17Q26.93-4.44 26.13-4.89Q25.33-5.33 24.91-5.97Q24.49-6.60 24.49-7.42L24.49-7.42Q24.49-8.88 25.69-9.82Q26.89-10.76 28.84-10.76L28.84-10.76Q30.93-10.76 32.20-9.81Q33.47-8.87 33.47-7.32L33.47-7.32L30.17-7.32Q30.17-8.59 28.83-8.59L28.83-8.59Q28.31-8.59 27.96-8.31Q27.61-8.02 27.61-7.59L27.61-7.59Q27.61-7.15 28.04-6.88Q28.47-6.60 29.41-6.43Q30.35-6.25 31.06-6.01L31.06-6.01Q33.45-5.19 33.45-3.07L33.45-3.07Q33.45-1.62 32.16-0.71Q30.88 0.20 28.84 0.20L28.84 0.20Q27.48 0.20 26.42-0.29Q25.35-0.78 24.76-1.62Q24.16-2.46 24.16-3.39L24.16-3.39L27.24-3.39Q27.26-2.66 27.72-2.32Q28.19-1.98 28.93-1.98L28.93-1.98Q29.60-1.98 29.94-2.26Q30.27-2.53 30.27-2.97ZM38.46-10.57L38.46 0L35.16 0L35.16-10.57L38.46-10.57ZM34.96-13.29L34.96-13.29Q34.96-13.99 35.47-14.44Q35.98-14.89 36.79-14.89Q37.60-14.89 38.11-14.44Q38.61-13.99 38.61-13.29Q38.61-12.59 38.11-12.14Q37.60-11.69 36.79-11.69Q35.98-11.69 35.47-12.14Q34.96-12.59 34.96-13.29ZM50.29-5.36L50.29-5.20Q50.29-2.60 49.22-1.20Q48.14 0.20 46.19 0.20L46.19 0.20Q44.58 0.20 43.59-1.08L43.59-1.08L43.46 0L40.51 0L40.51-15L43.80-15L43.80-9.72Q44.72-10.76 46.17-10.76L46.17-10.76Q48.14-10.76 49.22-9.35Q50.29-7.93 50.29-5.36L50.29-5.36ZM46.99-5.40L46.99-5.40Q46.99-6.92 46.59-7.57Q46.18-8.22 45.34-8.22L45.34-8.22Q44.23-8.22 43.80-7.37L43.80-7.37L43.80-3.17Q44.22-2.33 45.36-2.33L45.36-2.33Q46.52-2.33 46.84-3.47L46.84-3.47Q46.99-4.02 46.99-5.40ZM51.34-4.82L51.33-5.38Q51.33-6.96 51.94-8.20Q52.56-9.43 53.71-10.10Q54.86-10.76 56.42-10.76L56.42-10.76Q58.79-10.76 60.16-9.29Q61.52-7.82 61.52-5.29L61.52-5.29L61.52-5.18Q61.52-2.71 60.15-1.25Q58.78 0.20 56.44 0.20L56.44 0.20Q54.18 0.20 52.81-1.16Q51.45-2.51 51.34-4.82L51.34-4.82ZM54.63-5.77L54.62-5.18Q54.62-3.71 55.08-3.03Q55.54-2.34 56.44-2.34L56.44-2.34Q58.19-2.34 58.23-5.05L58.23-5.05L58.23-5.38Q58.23-8.22 56.42-8.22L56.42-8.22Q54.77-8.22 54.63-5.77L54.63-5.77ZM65.38-10.57L67.05-4.61L68.81-10.57L72.33-10.57L68.03 1.77L67.84 2.22Q66.92 4.27 64.60 4.27L64.60 4.27Q63.96 4.27 63.24 4.07L63.24 4.07L63.24 1.72L63.67 1.72Q64.37 1.72 64.73 1.52Q65.10 1.32 65.27 0.80L65.27 0.80L65.54 0.10L61.87-10.57L65.38-10.57ZM78.72-2.97L78.72-2.97Q78.72-3.39 78.28-3.64Q77.84-3.90 76.61-4.17Q75.38-4.44 74.58-4.89Q73.78-5.33 73.36-5.97Q72.94-6.60 72.94-7.42L72.94-7.42Q72.94-8.88 74.14-9.82Q75.34-10.76 77.29-10.76L77.29-10.76Q79.38-10.76 80.64-9.81Q81.91-8.87 81.91-7.32L81.91-7.32L78.61-7.32Q78.61-8.59 77.28-8.59L77.28-8.59Q76.76-8.59 76.41-8.31Q76.05-8.02 76.05-7.59L76.05-7.59Q76.05-7.15 76.48-6.88Q76.91-6.60 77.86-6.43Q78.80-6.25 79.51-6.01L79.51-6.01Q81.89-5.19 81.89-3.07L81.89-3.07Q81.89-1.62 80.61-0.71Q79.33 0.20 77.29 0.20L77.29 0.20Q75.93 0.20 74.86-0.29Q73.80-0.78 73.20-1.62Q72.61-2.46 72.61-3.39L72.61-3.39L75.68-3.39Q75.70-2.66 76.17-2.32Q76.64-1.98 77.37-1.98L77.37-1.98Q78.05-1.98 78.38-2.26Q78.72-2.53 78.72-2.97ZM89.88-10.64L89.82-7.59L88.74-7.67Q87.19-7.67 86.75-6.69L86.75-6.69L86.75 0L83.46 0L83.46-10.57L86.54-10.57L86.65-9.21Q87.48-10.76 88.96-10.76L88.96-10.76Q89.49-10.76 89.88-10.64L89.88-10.64ZM95.94 0.20L95.94 0.20Q93.51 0.20 92.00-1.25Q90.50-2.71 90.50-5.03L90.50-5.03L90.50-5.30Q90.50-6.92 91.10-8.16Q91.70-9.40 92.85-10.08Q94.00-10.76 95.59-10.76L95.59-10.76Q97.81-10.76 99.10-9.38Q100.39-8.00 100.39-5.53L100.39-5.53L100.39-4.25L93.85-4.25Q94.02-3.36 94.62-2.85Q95.21-2.34 96.16-2.34L96.16-2.34Q97.72-2.34 98.60-3.44L98.60-3.44L100.11-1.66Q99.49-0.81 98.36-0.31Q97.24 0.20 95.94 0.20ZM95.57-8.22L95.57-8.22Q94.12-8.22 93.85-6.31L93.85-6.31L97.17-6.31L97.17-6.56Q97.19-7.35 96.77-7.79Q96.35-8.22 95.57-8.22ZM101.65-10.57L104.74-10.57L104.84-9.33Q105.94-10.76 107.86-10.76L107.86-10.76Q109.51-10.76 110.33-9.78Q111.14-8.79 111.17-6.81L111.17-6.81L111.17 0L107.87 0L107.87-6.67Q107.87-7.47 107.55-7.85Q107.23-8.22 106.38-8.22L106.38-8.22Q105.41-8.22 104.94-7.46L104.94-7.46L104.94 0L101.65 0L101.65-10.57ZM113.54-13.19L116.83-13.19L116.83-10.57L118.56-10.57L118.56-8.28L116.83-8.28L116.83-3.45Q116.83-2.85 117.04-2.62Q117.26-2.38 117.89-2.38L117.89-2.38Q118.38-2.38 118.71-2.44L118.71-2.44L118.71-0.09Q117.82 0.20 116.86 0.20L116.86 0.20Q115.16 0.20 114.35-0.61Q113.54-1.41 113.54-3.04L113.54-3.04L113.54-8.28L112.19-8.28L112.19-10.57L113.54-10.57L113.54-13.19ZM129.10 0L125.81 0Q125.63-0.32 125.50-0.95L125.50-0.95Q124.59 0.20 122.96 0.20L122.96 0.20Q121.46 0.20 120.42-0.71Q119.38-1.61 119.38-2.98L119.38-2.98Q119.38-4.70 120.64-5.58Q121.91-6.46 124.34-6.46L124.34-6.46L125.35-6.46L125.35-7.01Q125.35-8.47 124.09-8.47L124.09-8.47Q122.92-8.47 122.92-7.31L122.92-7.31L119.63-7.31Q119.63-8.85 120.93-9.80Q122.24-10.76 124.26-10.76Q126.28-10.76 127.45-9.78Q128.62-8.79 128.65-7.07L128.65-7.07L128.65-2.39Q128.67-0.94 129.10-0.17L129.10-0.17L129.10 0ZM123.75-2.15L123.75-2.15Q124.37-2.15 124.77-2.41Q125.18-2.68 125.35-3.01L125.35-3.01L125.35-4.70L124.39-4.70Q122.68-4.70 122.68-3.15L122.68-3.15Q122.68-2.71 122.98-2.43Q123.28-2.15 123.75-2.15ZM133.95-15L133.95 0L130.64 0L130.64-15L133.95-15Z"></path></g></g></svg>